<?xml version="1.0" encoding="utf-8"?>
<!-- Generator: Adobe Illustrator 15.0.2, SVG Export Plug-In . SVG Version: 6.00 Build 0)  -->
<!DOCTYPE svg PUBLIC "-//W3C//DTD SVG 1.1//EN" "http://www.w3.org/Graphics/SVG/1.1/DTD/svg11.dtd">
<svg version="1.1" id="Layer_1" xmlns="http://www.w3.org/2000/svg" xmlns:xlink="http://www.w3.org/1999/xlink" x="0px" y="0px"
	 width="100px" height="100px" viewBox="0 0 100 100" enable-background="new 0 0 100 100" xml:space="preserve">
<g>
	<path fill-rule="evenodd" clip-rule="evenodd" fill="#2A1442" d="M49.474,8.423c11.634,4.666,24.687,10.849,36.141,16.531
		c1.296,0.644,4.277,1.123,3.843,3.459c-0.279,2.113-3.157,1.115-4.23,1.156c-11.003,0.407-23.274,0-34.986,0
		c-13.422,0-27.28,0.635-39.211-0.771c-0.778-2.306,2.147-3.17,3.457-3.844C25.436,19.334,38.577,14.301,49.474,8.423z"/>
	<path fill-rule="evenodd" clip-rule="evenodd" fill="#2A1442" d="M19.488,31.107c19.257,0.265,42.775-0.52,62.665,0.384
		c0,1.41,0,2.819,0,4.229c-21.323,0.645-43.226,0.545-63.819,0c0-1.281,0-2.564,0-3.846C18.615,31.516,19.032,31.291,19.488,31.107z
		"/>
	<path fill-rule="evenodd" clip-rule="evenodd" fill="#2A1442" d="M28.33,37.643c0.463,12.736,0.611,25.787,1.154,38.446
		c-2.948,0-5.897,0-8.844,0c0.077-12.996,0.491-25.653,0.772-38.446C23.717,37.643,26.023,37.643,28.33,37.643z"/>
	<path fill-rule="evenodd" clip-rule="evenodd" fill="#2A1442" d="M45.248,37.643c0.243,12.954,0.59,25.807,1.15,38.446
		c-2.947,0-5.894,0-8.842,0c-0.212-13.286,0.55-25.595,0.767-38.446C40.634,37.643,42.939,37.643,45.248,37.643z"/>
	<path fill-rule="evenodd" clip-rule="evenodd" fill="#2A1442" d="M62.157,37.643c-0.063,13.136,1.059,25.087,0.772,38.446
		c-2.946,0-5.895,0-8.842,0c0.646-12.556,0.556-25.844,1.151-38.446C57.546,37.643,59.854,37.643,62.157,37.643z"/>
	<path fill-rule="evenodd" clip-rule="evenodd" fill="#2A1442" d="M79.076,37.643c0.025,13.046,0.841,25.303,0.772,38.446
		c-2.951,0-5.897,0-8.847,0c0.98-12.355-0.217-26.873,1.54-38.446C74.718,37.643,76.897,37.643,79.076,37.643z"/>
	<path fill-rule="evenodd" clip-rule="evenodd" fill="#2A1442" d="M94.457,87.622c0,1.666,0,3.331,0,4.998
		c-29.479,0-58.952,0-88.425,0c0-1.667,0-3.332,0-4.998c1.413,0.125,3.404-0.33,4.229,0.387c0-1.794,0-3.59,0-5.385
		c2.047-0.02,3.291,0.174,4.227,0.384c0.015-1.906-0.101-4.68,0.387-4.997c21.246-0.148,46.328,0.046,71.121,0
		c0,1.537,0,3.073,0,4.613c1.296,0.242,3.576-0.496,4.233,0.384c0.245,1.55-0.5,4.086,0.381,5.001
		C91.143,87.129,93.288,87.862,94.457,87.622z"/>
</g>
</svg>
