<?xml version="1.0" encoding="utf-8"?>
<!-- Generator: Adobe Illustrator 15.0.2, SVG Export Plug-In . SVG Version: 6.00 Build 0)  -->
<!DOCTYPE svg PUBLIC "-//W3C//DTD SVG 1.1//EN" "http://www.w3.org/Graphics/SVG/1.1/DTD/svg11.dtd">
<svg version="1.1" id="Layer_1" xmlns="http://www.w3.org/2000/svg" xmlns:xlink="http://www.w3.org/1999/xlink" x="0px" y="0px"
	 width="100px" height="100px" viewBox="0 0 100 100" enable-background="new 0 0 100 100" xml:space="preserve">
<g>
	<path fill-rule="evenodd" clip-rule="evenodd" fill="#2A1442" d="M80.387,39.536c-0.569-4.229-6.255-5.776-7.954-1.744
		c-2.149-3.043-8.98-2.961-8.886,1.955c-2.748-2.782-12.467-0.927-9.942,5.099c-7.691-2.595,1.694-11.909,7.298-9.175
		c2.93-2.823,8.399-3.996,11.786-2.011C77.102,30.188,84.077,34.89,80.387,39.536z"/>
	<path fill-rule="evenodd" clip-rule="evenodd" fill="#2A1442" d="M52.086,46.423c9.466-2.083,18.933-4.165,28.399-6.247
		c1.908-0.441,2.06,1.868,2.726,3.37c3.358-0.73,7.038-1.963,9.112-0.682c2.918,3.988,5.558,14.886,3.534,19.073
		c-1.834,1.357-5.163,1.76-8.064,2.435c0.878,3.997,1.758,7.994,2.638,11.991c-8.433,2.951-21.402,5.805-30.293,6.663
		C55.912,71.982,55.781,58.926,52.086,46.423z M56.705,49.376c2.509,9.919,3.86,19.099,5.617,28.538
		c6.873-0.003,15.801-3.227,23.489-4.505c-2.131-9.678-4.259-19.354-6.389-29.03C71.852,46.044,64.278,47.71,56.705,49.376z
		 M86.819,59.954c1.683-0.369,3.368-0.74,5.05-1.109c-0.833-3.788-1.665-7.573-2.499-11.361c-1.682,0.37-3.365,0.741-5.049,1.11
		C85.154,52.382,85.986,56.169,86.819,59.954z"/>
	<path fill-rule="evenodd" clip-rule="evenodd" fill="#2A1442" d="M59.709,54.008c0.42-0.091,3.284-1.289,3.704-1.381
		c1.47,4.317,0.173,9.661,2.928,11.575c3.671-1.633,0.829-8.452,0.859-12.408c5.049-1.111,6.394-0.839,11.441-1.95
		c1.487,7.569,3.288,14.65,5.351,21.319c-5.615,2.734-13.168,3.148-20.056,5.073C62.748,68.968,60.474,60.866,59.709,54.008z"/>
	<path fill-rule="evenodd" clip-rule="evenodd" fill="#2A1442" d="M21.588,32.435c0.989-4.032,6.651-4.938,7.877-0.859
		c2.396-2.721,8.997-1.93,8.394,2.816c2.947-2.406,12.159,0.401,9.087,5.967c6.839-2.873-1.601-12.061-7.309-9.999
		c-2.54-3.036-6.506-4.377-9.991-2.809C25.74,23.733,18.502,27.557,21.588,32.435z"/>
	<path fill-rule="evenodd" clip-rule="evenodd" fill="#2A1442" d="M37.542,77.857c-8.748-1.806-21.338-6.031-29.405-9.865
		c1.301-3.881,2.604-7.762,3.905-11.641c-2.814-0.98-6.081-1.739-7.759-3.283c-1.563-4.38,2.227-14.934,5.554-18.586
		c2.198-1.052,5.727,0.568,8.988,1.653c0.824-1.422,1.22-3.703,3.071-3.059c9.189,3.083,18.379,6.166,27.567,9.249
		C44.453,54.361,42.924,67.33,37.542,77.857z M22.5,37.368c-3.152,9.395-6.303,18.786-9.456,28.181
		c7.506,2.093,16.04,6.252,22.873,6.993c2.757-9.198,5.083-18.181,8.637-27.775C37.203,42.301,29.852,39.834,22.5,37.368z
		 M17.18,41.036c-1.633-0.547-3.267-1.096-4.901-1.644c-1.069,0.968-2.466,7.352-3.7,11.027c1.634,0.548,3.268,1.096,4.901,1.645
		C14.713,48.388,15.947,44.711,17.18,41.036z"/>
	<path fill-rule="evenodd" clip-rule="evenodd" fill="#2A1442" d="M41.073,49.051c-0.409-0.137-10.503-3.627-10.91-3.763
		c-3.604,0.278-1.076,9.477-5.743,11.022c-3.475-2.014,1.673-8.317,2.067-12.256c-4.9-1.644,1.108,0.476-3.792-1.168
		c-2.289,7.368-4.189,14.215-6.955,20.625c5.292,3.32,12.111,4.538,18.752,7.189C36.45,63.601,39.579,55.787,41.073,49.051z"/>
	<g>
		<path fill="#2A1442" d="M53.543,17.351c0.292,3.093,1.398,13.715-2.844,14.026c-0.318-4.774-1.295-9.005-1.7-13.708
			C51.226,18.426,51.788,17.167,53.543,17.351z"/>
		<path fill="#2A1442" d="M63.413,24.313c-2.076,3.195-5.747,8.344-8.984,7.42c0.659-3.918,3.182-5.573,4.582-8.593
			C61.343,22.817,61.082,24.636,63.413,24.313z"/>
		<path fill="#2A1442" d="M40.758,25.161c0.534-2.125,1.896-3.249,4.083-3.373c1.395,1.149,2.487,5.46,2.804,5.833
			c0.216,0.256,0.427,0.508,0.641,0.736c0.51,0.544,0.48,1.4-0.064,1.909c-0.295,0.275-0.68,0.394-1.051,0.358
			c-0.318-0.031-0.625-0.171-0.859-0.423c-0.243-0.26-0.483-0.545-0.732-0.838c-0.275-0.325-0.557-0.655-0.847-0.951
			C43.328,27.394,42.612,25.807,40.758,25.161z"/>
	</g>
</g>
</svg>
