<?xml version="1.0" encoding="utf-8"?>
<!-- Generator: Adobe Illustrator 15.0.2, SVG Export Plug-In . SVG Version: 6.00 Build 0)  -->
<!DOCTYPE svg PUBLIC "-//W3C//DTD SVG 1.1//EN" "http://www.w3.org/Graphics/SVG/1.1/DTD/svg11.dtd">
<svg version="1.1" id="Layer_1" xmlns="http://www.w3.org/2000/svg" xmlns:xlink="http://www.w3.org/1999/xlink" x="0px" y="0px"
	 width="100px" height="100px" viewBox="0 0 100 100" enable-background="new 0 0 100 100" xml:space="preserve">
<path fill-rule="evenodd" clip-rule="evenodd" fill="#2A1442" d="M70.845,6.853C70.209,4.268,58.7,1.879,50.244,1.984
	c-8.457-0.104-19.965,2.284-20.6,4.869c-0.797,3.249,12.23,5.937,16.186,7.357c-2.051,3.591-3.425,7.856-5.886,11.035
	c-2.643-0.719-6.02-2.944-9.38-4.537c1.901,2.636,5.526,7.103,9.994,8.767c0.702-0.519,2.149-4.03,3.8-5.702
	c0.168,0.817,2.981,4.685,3.679,5.15c-2.296,19.039-5.155,37.514-6.622,57.382c1.554,1.877,7.104,9.233,8.829,11.301
	c1.726-2.067,7.274-9.424,8.829-11.301c-1.467-19.868-4.326-38.344-6.622-57.382c0.698-0.466,3.511-4.333,3.679-5.15
	c1.652,1.672,3.099,5.183,3.801,5.702c4.468-1.664,8.093-6.131,9.993-8.767c-3.359,1.592-6.737,3.817-9.38,4.537
	c-2.462-3.179-3.837-7.444-5.885-11.035C58.612,12.79,71.641,10.102,70.845,6.853z"/>
</svg>
