<?xml version="1.0" encoding="utf-8"?>
<!-- Generator: Adobe Illustrator 15.0.2, SVG Export Plug-In . SVG Version: 6.00 Build 0)  -->
<!DOCTYPE svg PUBLIC "-//W3C//DTD SVG 1.1//EN" "http://www.w3.org/Graphics/SVG/1.1/DTD/svg11.dtd">
<svg version="1.1" id="Layer_1" xmlns="http://www.w3.org/2000/svg" xmlns:xlink="http://www.w3.org/1999/xlink" x="0px" y="0px"
	 width="100px" height="100px" viewBox="0 0 100 100" enable-background="new 0 0 100 100" xml:space="preserve">
<g>
	<path fill-rule="evenodd" clip-rule="evenodd" fill="#2A1442" d="M91.678,34.099c-4.572-0.625-5.661,6.479-4.49,12.239
		C76.131,58.955,66.197,72.699,54.523,84.71c-8.051-3.056-21.077-6.337-31.417-9.392c-3.342-0.971-8.05-2.056-9.796-3.665
		c-3.502-3.234-3.872-12.109-0.412-13.881c2.428-1.251,7.495,0.756,10.613,1.635c6.578,1.841,12.995,4.101,20.003,6.126
		c3.822,1.089,8.373,2.755,10.606,2.434c3.976-0.557,7.615-7.055,11.021-11.012c7.235-8.387,12.661-14.662,20.416-23.667
		c2.328-2.714,9.997-8.554,9.384-12.661c-0.459-3.171-7.735-4.274-10.611-4.894c-9.735-2.118-15.416-3.196-24.898-5.314
		c-4.389-0.984-9.479-3.022-12.647-2.453C43.484,8.574,39,15.35,36.163,18.584c-6.395,7.333-13.428,15.212-19.997,22.452
		C10.365,47.428,4.862,51.2,3.512,61.439c0,1.498,0,2.99,0,4.497c1.712,15.032,17.055,15.392,31.025,19.598
		c2.762,0.836,6.918,2.477,11.022,3.667c3.673,1.069,9.109,3.226,11.424,2.854c3.479-0.557,7.083-7.345,9.796-10.61
		c9.575-11.489,18.828-21.82,27.76-33.464C91.907,43.284,97.252,34.86,91.678,34.099z M32.304,52.268
		c2.167-2.463,6.222-5.763,9.006-8.997c4.167-4.83,7.608-8.814,11.49-13.315c-4.967-1.342-8.945-2.642-9.672-3.973
		c0,0,3.426-6.686,6.109-5.673c1.435,0.541,5.031,1.587,9.375,2.883c1.545-1.863,2.654-3.389,4.934-5.345l7.53,1.88
		c-2.68,3.735-3.521,4.735-4.539,5.89c2.705,0.857,5.396,1.75,7.82,2.636c2.747,0.999-1.002,7.674-3.748,6.676
		c-2.734-0.999-6.158-1.944-9.656-2.856c-4.244,4.924-7.875,9.124-12.346,14.309c-2.784,3.233-5.757,8.542-9.005,8.999
		C39.602,55.381,30.41,54.421,32.304,52.268z"/>
</g>
</svg>
