<?xml version="1.0" encoding="utf-8"?>
<!-- Generator: Adobe Illustrator 15.0.2, SVG Export Plug-In . SVG Version: 6.00 Build 0)  -->
<!DOCTYPE svg PUBLIC "-//W3C//DTD SVG 1.1//EN" "http://www.w3.org/Graphics/SVG/1.1/DTD/svg11.dtd">
<svg version="1.1" xmlns="http://www.w3.org/2000/svg" xmlns:xlink="http://www.w3.org/1999/xlink" x="0px" y="0px" width="100px"
	 height="100px" viewBox="0 0 100 100" enable-background="new 0 0 100 100" xml:space="preserve">
<g id="Layer_1">
	<path fill="#2A1441" d="M47.963,11.785c-3.724,1.013-7.252,2.532-9.938,5.379c-1.329,1.408-2.409,3.043-3.061,4.873
		c-0.306,0.86-0.556,1.759-1.046,2.539c-0.456,0.724-1.052,1.405-1.375,2.203l-0.085,0.285l-0.041,0.241l-0.003,0.211l0.029,0.204
		c0.093,0.338,0.216,0.67,0.372,0.984c0.414,0.713,0.92,1.331,1.213,2.113c0.587,2.104,0.646,4.204,1.802,6.127
		c1.194,1.987,2.724,3.479,4.426,5.026c3.341,3.036,6.969,5.226,10.896,7.41c1.191,0.663,2.379,1.301,3.603,1.9H43.473v3.382
		c0.73,0.146,1.479,0.188,2.203,0.36l0.354,0.116l0.275,0.159c0.127,0.091,0.249,0.19,0.363,0.294l0.107,0.154l0.056,0.202
		l0.003,0.284c-0.192,2.003-0.996,4.009-1.634,5.903c-0.624,1.849-1.335,3.694-2.216,5.436c-0.945,1.87-2.013,3.664-3.125,5.438
		c-1.005,1.603-2.047,3.321-3.353,4.701l-0.192,0.127l-0.204,0.02l-0.253-0.084l-0.341-0.187l-0.434-0.314
		c-2.896-2.621-4.612-6.193-6.043-9.763c-0.725-1.81-1.278-3.648-1.722-5.545c-0.409-1.75-1.097-3.825-0.537-5.607
		c0.072-0.202,0.163-0.399,0.271-0.585l0.168-0.247l0.186-0.219l0.213-0.172l0.249-0.123c0.463-0.166,0.957-0.206,1.426-0.35
		l0.001-3.382H16.069v3.382c0.555,0.095,1.118,0.068,1.677,0.119l0.407,0.074l0.388,0.143l0.362,0.238l0.337,0.343
		c1.359,1.699,1.979,3.942,2.518,6.007c0.586,2.248,1.366,4.437,2.188,6.609c1.539,4.064,3.859,8.264,6.709,11.564
		c2.812,3.255,6.798,6.316,10.969,7.542c4.234,1.244,9.067,1.939,13.422,0.84c3.858-0.976,7.773-2.901,10.749-5.556
		c3.103-2.766,5.139-6.251,6.61-10.096l1.147-4.369l0.199-0.422c0.296-0.521,0.723-0.932,1.054-1.425l0.119-0.254l0.075-0.251
		l0.039-0.234l0.012-0.224l-0.02-0.215l-0.046-0.21c-0.046-0.146-0.1-0.29-0.163-0.43l-0.125-0.21
		c-0.314-0.376-0.701-0.678-1.013-1.056c-1.291-1.751-1.741-4.028-2.459-6.034c-0.779-2.176-2.135-3.966-3.737-5.609
		c-3.256-3.338-7.602-5.608-11.531-8.028c2.432-1.52,4.92-2.988,6.89-5.111c0.897-0.968,1.568-2,2.003-3.251
		c0.458-1.316,0.416-2.626,0.698-3.967l0.112-0.333l0.156-0.236l0.185-0.158l0.208-0.1c0.222-0.065,0.446-0.117,0.67-0.171
		l0.214-0.086v-2.304h-8.395l0.01,2.403c0.528,0.105,1.073,0.102,1.6,0.22l0.269,0.092l0.22,0.135l0.175,0.187l0.142,0.225
		l0.11,0.258c0.686,2.066-0.826,4.141-2.246,5.496c-1.423,1.359-3.309,2.972-5.261,3.456c-4.364,1.081-9.038-1.532-12.091-4.435
		c-3.106-2.953-4.583-8.175-2.698-12.13c1.92-4.033,5.793-7.189,10.232-7.812c2.082-0.292,4.241-0.105,6.235,0.552
		c2.011,0.663,3.517,2.214,4.576,4.01l0.137,0.371l-0.029,0.262l-0.173,0.19l-0.275,0.133c-0.352,0.109-0.714,0.184-1.067,0.28
		l-0.305,0.12l-0.007,2.312h8.831l0.012-2.328l-0.239-0.068c-0.234-0.039-0.469-0.073-0.701-0.119l-0.24-0.082l-0.252-0.144
		l-0.263-0.217c-1.131-1.171-1.928-2.815-2.87-4.15c-1.108-1.574-2.362-2.721-3.98-3.762C55.438,11.251,51.496,11.065,47.963,11.785
		L47.963,11.785z M55.045,54.775c0.552-0.047,1.105-0.053,1.656-0.113v-2.717c1.958,0.778,3.902,1.42,5.563,2.769
		c1.733,1.406,3.162,3.396,4.005,5.452c1.684,4.102,1.5,9.111-0.269,13.123c-1.649,3.74-4.624,6.975-8.22,8.936
		c-3.84,2.092-8.909,2.029-13.021,0.967c-1.948-0.504-3.464-1.558-5.128-2.637c1.502-1.766,2.944-3.368,4.072-5.413
		c1.125-2.039,2.131-4.141,3.078-6.267c1.085-2.438,1.857-5.055,2.767-7.564c0.644-1.775,1.248-3.676,2.558-5.081
		c0.483-0.52,1.114-0.907,1.759-1.192l0.376-0.13C54.505,54.841,54.775,54.797,55.045,54.775L55.045,54.775z"/>
</g>
<g id="Layer_2">
	<ellipse fill="none" stroke="#2A1441" stroke-width="2" stroke-miterlimit="10" cx="50" cy="50" rx="46.1" ry="47.083"/>
	<ellipse fill="none" stroke="#2A1441" stroke-width="2" stroke-miterlimit="10" cx="50" cy="50" rx="41.487" ry="47.083"/>
</g>
</svg>
