<?xml version="1.0" encoding="utf-8"?>
<!-- Generator: Adobe Illustrator 15.0.2, SVG Export Plug-In . SVG Version: 6.00 Build 0)  -->
<!DOCTYPE svg PUBLIC "-//W3C//DTD SVG 1.1//EN" "http://www.w3.org/Graphics/SVG/1.1/DTD/svg11.dtd">
<svg version="1.1" xmlns="http://www.w3.org/2000/svg" xmlns:xlink="http://www.w3.org/1999/xlink" x="0px" y="0px" width="74px"
	 height="74px" viewBox="0 0 74 74" enable-background="new 0 0 74 74" xml:space="preserve">
<g id="Layer_1">
	<path fill="#333333" d="M35.46,8.077c-2.815,0.766-5.482,1.914-7.513,4.066c-1.004,1.064-1.821,2.301-2.313,3.683
		c-0.231,0.65-0.42,1.33-0.791,1.919c-0.345,0.547-0.795,1.062-1.04,1.665l-0.064,0.215l-0.031,0.183l-0.002,0.159l0.021,0.154
		c0.071,0.256,0.164,0.507,0.281,0.744c0.313,0.54,0.696,1.006,0.917,1.598c0.444,1.59,0.488,3.178,1.362,4.632
		c0.902,1.502,2.059,2.63,3.346,3.799c2.525,2.295,5.269,3.951,8.237,5.602c0.9,0.501,1.798,0.983,2.723,1.437h-8.529v2.557
		c0.552,0.11,1.118,0.142,1.666,0.272l0.268,0.088l0.208,0.12c0.096,0.068,0.188,0.144,0.275,0.223l0.081,0.116l0.042,0.153
		l0.002,0.215c-0.145,1.514-0.753,3.03-1.235,4.462c-0.472,1.397-1.009,2.793-1.675,4.109c-0.715,1.414-1.521,2.77-2.362,4.111
		c-0.76,1.212-1.548,2.511-2.535,3.554l-0.145,0.096l-0.154,0.016l-0.191-0.063l-0.257-0.142l-0.328-0.237
		c-2.189-1.981-3.487-4.683-4.569-7.381c-0.548-1.367-0.966-2.758-1.302-4.191c-0.309-1.323-0.829-2.892-0.405-4.239
		c0.054-0.152,0.123-0.302,0.205-0.442l0.127-0.187l0.141-0.165l0.161-0.13l0.188-0.093c0.35-0.126,0.723-0.156,1.078-0.265
		l0.001-2.557h-10v2.557c0.419,0.071,0.845,0.052,1.268,0.09l0.308,0.057l0.293,0.107l0.274,0.18l0.255,0.26
		c1.027,1.284,1.496,2.98,1.903,4.541c0.443,1.699,1.033,3.354,1.654,4.996c1.164,3.072,2.917,6.247,5.072,8.742
		c2.125,2.461,5.139,4.775,8.292,5.702c3.201,0.94,6.854,1.466,10.146,0.635c2.917-0.738,5.876-2.193,8.126-4.2
		c2.345-2.091,3.885-4.726,4.997-7.632l0.867-3.303l0.15-0.319c0.224-0.395,0.547-0.704,0.797-1.077l0.09-0.191l0.057-0.19
		l0.03-0.177l0.009-0.169l-0.015-0.163l-0.035-0.158c-0.035-0.111-0.075-0.22-0.123-0.325l-0.095-0.158
		c-0.237-0.284-0.53-0.513-0.766-0.798c-0.976-1.324-1.316-3.046-1.858-4.563c-0.59-1.645-1.614-2.998-2.826-4.24
		c-2.461-2.523-5.746-4.239-8.717-6.069c1.838-1.149,3.72-2.259,5.208-3.864c0.679-0.732,1.186-1.512,1.515-2.458
		c0.346-0.995,0.314-1.985,0.527-2.999l0.085-0.252l0.118-0.179l0.14-0.12l0.157-0.075c0.168-0.049,0.338-0.088,0.507-0.129
		l0.161-0.065v-1.742h-6.346l0.008,1.817c0.399,0.079,0.811,0.077,1.209,0.167l0.203,0.069l0.166,0.102l0.132,0.141l0.107,0.17
		l0.083,0.195c0.519,1.562-0.624,3.13-1.698,4.154c-1.075,1.028-2.501,2.247-3.977,2.613c-3.299,0.817-6.832-1.158-9.141-3.353
		c-2.348-2.232-3.464-6.18-2.039-9.17c1.452-3.049,4.379-5.435,7.735-5.906c1.574-0.221,3.206-0.079,4.714,0.417
		c1.52,0.501,2.658,1.674,3.459,3.031l0.104,0.28l-0.022,0.198l-0.13,0.144l-0.209,0.101c-0.266,0.082-0.539,0.139-0.807,0.211
		l-0.23,0.09l-0.005,1.748h6.676l0.009-1.76l-0.181-0.052c-0.177-0.029-0.354-0.055-0.53-0.09l-0.182-0.062l-0.19-0.109
		l-0.198-0.164c-0.854-0.885-1.457-2.128-2.17-3.138c-0.838-1.189-1.786-2.057-3.009-2.844C41.11,7.673,38.131,7.532,35.46,8.077
		L35.46,8.077z M40.813,40.576c0.417-0.036,0.836-0.04,1.252-0.086v-2.054c1.48,0.588,2.95,1.073,4.206,2.093
		c1.311,1.063,2.391,2.566,3.027,4.122c1.273,3.101,1.134,6.888-0.203,9.92c-1.246,2.828-3.495,5.272-6.214,6.755
		c-2.903,1.582-6.734,1.534-9.843,0.731c-1.472-0.381-2.619-1.178-3.876-1.993c1.136-1.335,2.226-2.547,3.078-4.093
		c0.851-1.541,1.611-3.13,2.327-4.737c0.82-1.843,1.404-3.821,2.091-5.718c0.487-1.343,0.943-2.779,1.934-3.842
		c0.365-0.393,0.842-0.686,1.33-0.901l0.285-0.098C40.405,40.625,40.61,40.592,40.813,40.576L40.813,40.576z"/>
</g>
<g id="Layer_2">
	<ellipse fill="none" stroke="#333333" stroke-width="2" stroke-miterlimit="10" cx="37" cy="37" rx="34.85" ry="35.592"/>
	<ellipse fill="none" stroke="#333333" stroke-width="2" stroke-miterlimit="10" cx="37" cy="37" rx="31.363" ry="35.592"/>
</g>
</svg>
