<?xml version="1.0" encoding="utf-8"?>
<!-- Generator: Adobe Illustrator 15.0.2, SVG Export Plug-In . SVG Version: 6.00 Build 0)  -->
<!DOCTYPE svg PUBLIC "-//W3C//DTD SVG 1.1//EN" "http://www.w3.org/Graphics/SVG/1.1/DTD/svg11.dtd">
<svg version="1.1" xmlns="http://www.w3.org/2000/svg" xmlns:xlink="http://www.w3.org/1999/xlink" x="0px" y="0px" width="90px"
	 height="90px" viewBox="0 0 90 90" enable-background="new 0 0 90 90" xml:space="preserve">
<g id="Layer_1">
	<path fill="#454545" d="M43.266,12.467c-3.17,0.862-6.174,2.156-8.46,4.579c-1.131,1.199-2.051,2.591-2.605,4.148
		c-0.261,0.732-0.473,1.498-0.891,2.161c-0.388,0.617-0.896,1.196-1.171,1.875l-0.072,0.243l-0.035,0.205l-0.003,0.18l0.025,0.174
		c0.079,0.288,0.184,0.57,0.316,0.838c0.353,0.607,0.783,1.133,1.033,1.799c0.5,1.791,0.55,3.579,1.534,5.216
		c1.017,1.691,2.319,2.961,3.768,4.279c2.844,2.584,5.933,4.449,9.276,6.309c1.014,0.564,2.025,1.107,3.067,1.618h-9.605v2.879
		c0.622,0.124,1.259,0.16,1.876,0.307l0.302,0.1l0.234,0.135c0.108,0.078,0.211,0.162,0.309,0.251l0.091,0.131l0.047,0.172
		l0.002,0.242c-0.164,1.705-0.848,3.413-1.392,5.025c-0.531,1.574-1.136,3.146-1.886,4.628c-0.805,1.592-1.713,3.119-2.66,4.63
		c-0.855,1.364-1.743,2.827-2.854,4.002l-0.163,0.108l-0.173,0.017l-0.215-0.071l-0.291-0.159l-0.369-0.268
		c-2.466-2.231-3.926-5.272-5.145-8.312c-0.617-1.54-1.088-3.105-1.466-4.721c-0.348-1.489-0.934-3.256-0.457-4.773
		c0.062-0.172,0.139-0.34,0.231-0.498l0.143-0.21l0.159-0.187l0.182-0.146l0.211-0.104c0.395-0.142,0.814-0.176,1.214-0.298
		l0.001-2.879H16.113v2.879c0.473,0.081,0.952,0.059,1.428,0.102l0.347,0.063l0.331,0.121l0.308,0.203l0.287,0.292
		c1.157,1.446,1.684,3.355,2.144,5.113c0.499,1.914,1.163,3.777,1.863,5.627c1.31,3.46,3.285,7.035,5.712,9.845
		c2.394,2.771,5.788,5.378,9.338,6.421c3.605,1.06,7.719,1.651,11.427,0.715c3.284-0.83,6.617-2.47,9.15-4.729
		c2.642-2.354,4.375-5.321,5.628-8.595l0.977-3.72l0.17-0.359c0.252-0.443,0.615-0.793,0.896-1.213l0.102-0.216l0.064-0.214
		l0.033-0.199l0.01-0.19l-0.017-0.183l-0.039-0.179c-0.039-0.125-0.085-0.247-0.139-0.366l-0.106-0.179
		c-0.268-0.32-0.597-0.577-0.862-0.898c-1.099-1.491-1.482-3.43-2.094-5.138c-0.663-1.852-1.817-3.376-3.182-4.775
		c-2.771-2.842-6.471-4.774-9.816-6.834c2.07-1.293,4.188-2.543,5.865-4.352c0.764-0.824,1.335-1.703,1.705-2.768
		c0.39-1.121,0.354-2.235,0.595-3.377l0.096-0.283l0.133-0.201l0.157-0.135l0.177-0.085c0.188-0.056,0.38-0.1,0.57-0.146
		l0.183-0.073v-1.961h-7.146l0.008,2.046c0.45,0.089,0.914,0.086,1.362,0.188l0.229,0.078l0.187,0.115l0.149,0.159l0.12,0.192
		l0.094,0.22c0.584,1.759-0.703,3.525-1.912,4.679c-1.211,1.157-2.816,2.53-4.479,2.942c-3.715,0.92-7.694-1.304-10.293-3.775
		c-2.645-2.514-3.901-6.959-2.297-10.327c1.635-3.433,4.932-6.12,8.711-6.65c1.772-0.249,3.61-0.089,5.309,0.47
		c1.712,0.564,2.993,1.885,3.896,3.414l0.116,0.315l-0.024,0.223l-0.147,0.162l-0.234,0.113c-0.3,0.093-0.607,0.157-0.909,0.238
		l-0.259,0.102l-0.006,1.968h7.518l0.011-1.982l-0.204-0.058c-0.199-0.033-0.399-0.062-0.597-0.102l-0.205-0.069l-0.214-0.123
		l-0.224-0.185c-0.963-0.997-1.642-2.397-2.443-3.533c-0.944-1.34-2.012-2.316-3.389-3.203
		C49.629,12.012,46.273,11.854,43.266,12.467L43.266,12.467z M49.295,49.065c0.47-0.04,0.941-0.045,1.41-0.097v-2.313
		c1.667,0.662,3.322,1.209,4.736,2.356c1.476,1.197,2.691,2.891,3.409,4.642c1.434,3.492,1.277,7.757-0.229,11.172
		c-1.404,3.185-3.937,5.938-6.998,7.607c-3.269,1.781-7.584,1.728-11.085,0.823c-1.658-0.429-2.949-1.326-4.365-2.245
		c1.279-1.503,2.506-2.867,3.466-4.608c0.958-1.735,1.814-3.524,2.621-5.335c0.924-2.075,1.581-4.303,2.355-6.439
		c0.548-1.512,1.063-3.129,2.178-4.325c0.412-0.442,0.948-0.772,1.498-1.016l0.321-0.11C48.835,49.121,49.065,49.084,49.295,49.065
		L49.295,49.065z"/>
</g>
<g id="Layer_2">
	<ellipse fill="none" stroke="#454545" stroke-width="2" stroke-miterlimit="10" cx="45" cy="45" rx="39.246" ry="40.083"/>
	<ellipse fill="none" stroke="#454545" stroke-width="2" stroke-miterlimit="10" cx="45" cy="45" rx="35.319" ry="40.083"/>
</g>
</svg>
