<?xml version="1.0" encoding="utf-8"?>
<!-- Generator: Adobe Illustrator 15.0.2, SVG Export Plug-In . SVG Version: 6.00 Build 0)  -->
<!DOCTYPE svg PUBLIC "-//W3C//DTD SVG 1.1//EN" "http://www.w3.org/Graphics/SVG/1.1/DTD/svg11.dtd">
<svg version="1.1" id="Layer_1" xmlns="http://www.w3.org/2000/svg" xmlns:xlink="http://www.w3.org/1999/xlink" x="0px" y="0px"
	 width="90px" height="90px" viewBox="0 0 90 90" enable-background="new 0 0 90 90" xml:space="preserve">
<g>
	<path fill="#232323" d="M45.188,6.152l-1.054,0.287L43.06,6.791l-1.064,0.393l-1.021,0.421l-0.95,0.427L39.18,8.444l-0.742,0.409
		l-0.662,0.424l-0.597,0.436l-0.542,0.448l-0.503,0.456l-0.476,0.459l-0.462,0.462l-0.44,0.466l-0.403,0.472l-0.369,0.477
		l-0.343,0.484l-0.318,0.49l-0.299,0.494l-0.286,0.498l-0.259,0.514l-0.223,0.534l-0.199,0.541l-0.186,0.539l-0.183,0.527
		l-0.191,0.507l-0.211,0.474l-0.243,0.449l-0.271,0.431l-0.282,0.416l-0.275,0.394l-0.251,0.374l-0.206,0.353l-0.147,0.327
		l-0.085,0.287l-0.042,0.242l-0.003,0.216l0.03,0.205l0.06,0.209l0.082,0.229l0.1,0.268l0.134,0.288l0.176,0.291l0.206,0.3
		l0.223,0.324l0.223,0.359l0.212,0.402l0.186,0.462l0.149,0.537l0.126,0.612l0.113,0.662l0.114,0.688l0.128,0.687l0.157,0.662
		l0.198,0.614l0.24,0.573l0.269,0.557l0.293,0.541l0.313,0.524l0.332,0.508l0.344,0.491l0.351,0.473l0.357,0.443l0.365,0.411
		l0.377,0.387l0.396,0.38l0.417,0.384l0.443,0.4l0.474,0.428l0.517,0.468l0.558,0.498l0.588,0.517l0.604,0.519l0.607,0.505
		l0.601,0.483l0.579,0.445l0.565,0.406l0.564,0.382l0.562,0.361l0.555,0.344l0.547,0.328l0.539,0.318l0.525,0.313l3.408,1.888
		l2.047,1.14l1.616,0.794h-11.4v3.414l0.431,0.082l0.459,0.065l0.467,0.063l0.453,0.068l0.417,0.088l0.359,0.117l0.278,0.159
		l0.208,0.161l0.159,0.137l0.108,0.157l0.056,0.203l0.003,0.29l-0.05,0.401l-0.106,0.561l-0.181,0.754l-0.261,0.941l-0.319,1.066
		l-0.361,1.133l-0.384,1.144l-0.388,1.1l-0.373,0.991l-0.353,0.889l-0.352,0.833l-0.357,0.798l-0.375,0.783l-0.4,0.791l-0.437,0.817
		l-0.483,0.864l-0.561,0.961l-0.643,1.061l-0.687,1.099l-0.696,1.078l-0.668,1.002l-0.607,0.863L34.5,71.655l-0.383,0.486
		l-0.282,0.365l-0.22,0.244l-0.193,0.13l-0.207,0.02l-0.256-0.084l-0.343-0.189l-0.439-0.316l-0.504-0.458l-0.55-0.576l-0.573-0.667
		l-0.575-0.729l-0.555-0.769l-0.515-0.78l-0.492-0.833l-0.489-0.921l-0.48-0.979l-0.462-1.008l-0.437-1l-0.401-0.963l-0.358-0.897
		l-0.312-0.839l-0.273-0.814L24.96,59.29l-0.211-0.76l-0.188-0.735l-0.171-0.71l-0.161-0.683l-0.152-0.662l-0.138-0.644
		l-0.123-0.617l-0.101-0.588l-0.073-0.556l-0.042-0.518l-0.006-0.472l0.032-0.429l0.067-0.384l0.097-0.352l0.125-0.312l0.148-0.281
		l0.17-0.249l0.189-0.22l0.216-0.177l0.249-0.124l0.276-0.09l0.292-0.066l0.297-0.057l0.295-0.061l0.282-0.081l0.001-3.414H12.967
		v3.414l0.416,0.06l0.426,0.021l0.427,0.011l0.424,0.032l0.412,0.074l0.392,0.144l0.366,0.243l0.339,0.343l0.321,0.422l0.302,0.49
		l0.289,0.541l0.275,0.583l0.263,0.604l0.257,0.618l0.234,0.641l0.208,0.673l0.191,0.707l0.188,0.732l0.197,0.759l0.217,0.774
		l0.251,0.8l0.28,0.834l0.302,0.88l0.319,0.909l0.335,0.919l0.344,0.911L21.3,64.08l0.361,0.843l0.37,0.803l0.381,0.779l0.391,0.759
		l0.401,0.741l0.41,0.729l0.418,0.716l0.425,0.706l0.434,0.702l0.442,0.696l0.452,0.686l0.459,0.671l0.465,0.648l0.47,0.619
		l0.474,0.586l0.475,0.551l0.472,0.511l0.477,0.487l0.485,0.464l0.499,0.451l0.519,0.442l0.543,0.441l0.583,0.451l0.625,0.452
		l0.649,0.446l0.654,0.431l0.641,0.407l0.611,0.371l0.562,0.329l0.485,0.275l0.42,0.232l0.384,0.194l0.38,0.172l0.409,0.16
		l0.47,0.165l0.56,0.175l0.656,0.193l0.723,0.205l0.777,0.205l0.817,0.195l0.846,0.18l0.86,0.146l0.862,0.112l0.896,0.073
		l0.953,0.049l0.98,0.025h0.982l0.955-0.028l0.9-0.049l0.819-0.07l0.725-0.099l0.65-0.124l0.6-0.149l0.567-0.172l0.561-0.191
		l0.574-0.209l0.613-0.228l0.647-0.242l0.664-0.262l0.675-0.282l0.677-0.3l0.674-0.322l0.664-0.343l0.646-0.366l0.634-0.386
		l0.629-0.407l0.622-0.427l0.613-0.447l0.601-0.477l0.588-0.5l0.572-0.529l0.563-0.568l0.557-0.596l0.545-0.624l0.533-0.648
		l0.508-0.666l0.483-0.679l0.454-0.689l0.426-0.712l0.402-0.742l0.379-0.764l0.353-0.771l0.327-0.762l0.302-0.741l0.271-0.708
		l1.159-4.412l0.199-0.43l0.225-0.361l0.234-0.31l0.228-0.272l0.208-0.252l0.173-0.244l0.12-0.255l0.075-0.255l0.041-0.235
		l0.011-0.225l-0.02-0.218l-0.048-0.212l-0.069-0.215l-0.093-0.219l-0.13-0.212l-0.166-0.198l-0.198-0.195l-0.216-0.2l-0.222-0.224
		l-0.22-0.252l-0.202-0.293l-0.188-0.326l-0.18-0.349l-0.18-0.371l-0.184-0.403l-0.188-0.439l-0.199-0.482l-0.216-0.526
		l-0.217-0.597l-0.21-0.664l-0.217-0.712l-0.236-0.737l-0.265-0.743l-0.305-0.729l-0.361-0.69l-0.416-0.664l-0.456-0.659l-0.5-0.65
		l-0.533-0.639l-0.565-0.63l-0.596-0.614l-0.62-0.601l-0.655-0.584l-0.697-0.567l-0.73-0.553l-0.754-0.543l-0.771-0.533
		l-0.778-0.529l-0.781-0.525l-5.707-3.516l2.993-1.87l0.418-0.293l0.42-0.301l0.418-0.307l0.412-0.313l0.405-0.32l0.39-0.327
		l0.374-0.336l0.364-0.34l0.362-0.346l0.351-0.354l0.335-0.36l0.316-0.369l0.294-0.376l0.265-0.385l0.235-0.396l0.208-0.404
		l0.186-0.414l0.166-0.422l0.146-0.427l0.136-0.435l0.123-0.44l0.099-0.471l0.065-0.508l0.045-0.524l0.039-0.513l0.051-0.48
		l0.073-0.42l0.112-0.336l0.159-0.239l0.186-0.16l0.211-0.102l0.221-0.064l0.229-0.05l0.229-0.058l0.215-0.086v-2.327h-8.48
		l0.008,2.426l0.314,0.053l0.333,0.036l0.336,0.033l0.328,0.041l0.307,0.06l0.271,0.093l0.224,0.136l0.178,0.188l0.142,0.229
		l0.112,0.26l0.08,0.281l0.058,0.293l0.032,0.289l0.014,0.28l-0.011,0.271l-0.038,0.274l-0.063,0.277l-0.085,0.281l-0.108,0.283
		l-0.128,0.288l-0.142,0.289l-0.157,0.293l-0.177,0.294L57.67,29.88l-0.215,0.298l-0.238,0.307l-0.267,0.311l-0.297,0.316
		l-0.338,0.33l-0.377,0.349l-0.407,0.356L55.104,32.5l-0.433,0.343l-0.431,0.323l-0.415,0.292l-0.396,0.267l-0.386,0.257
		l-0.384,0.24l-0.389,0.217l-0.4,0.195l-0.423,0.167L51,34.933l-0.495,0.097l-0.535,0.063l-0.561,0.035l-0.565,0.011l-0.556-0.011
		l-0.518-0.029l-0.469-0.041l-0.406-0.06l-0.361-0.084l-0.329-0.103l-0.314-0.12l-0.311-0.13l-0.322-0.138l-0.351-0.141
		l-0.378-0.144l-0.393-0.148l-0.404-0.157l-0.406-0.167l-0.405-0.177l-0.395-0.192l-0.381-0.207l-0.368-0.225l-0.36-0.238
		l-0.354-0.254l-0.347-0.263l-0.34-0.273l-0.334-0.281l-0.328-0.287l-0.318-0.277l-0.309-0.27l-0.302-0.271l-0.297-0.29
		l-0.293-0.319l-0.292-0.362l-0.294-0.42l-0.308-0.492l-0.327-0.557l-0.328-0.605l-0.319-0.629l-0.293-0.634l-0.253-0.621
		l-0.2-0.584l-0.146-0.559l-0.105-0.556l-0.069-0.546l-0.039-0.54l-0.011-0.524l0.011-0.511l0.027-0.491l0.043-0.466l0.067-0.442
		l0.089-0.427l0.114-0.416l0.138-0.415l0.166-0.419l0.194-0.431l0.229-0.451l0.268-0.468l0.297-0.47l0.318-0.471l0.328-0.455
		l0.329-0.433l0.32-0.402l0.31-0.365l0.304-0.34l0.306-0.318l0.315-0.302l0.331-0.292l0.352-0.29l0.379-0.291l0.408-0.299
		l0.429-0.306l0.45-0.302l0.468-0.291l0.483-0.271l0.497-0.245l0.507-0.211l0.527-0.175l0.55-0.151l0.567-0.125l0.575-0.1
		l0.579-0.081l0.574-0.058l0.563-0.038l0.557-0.02l0.559,0.002l0.554,0.025l0.554,0.045l0.546,0.067l0.531,0.088l0.521,0.113
		l0.507,0.126l0.5,0.138l0.489,0.16l0.478,0.187l0.468,0.221l0.451,0.263l0.438,0.313l0.456,0.4l0.489,0.488l0.486,0.541
		l0.452,0.555l0.38,0.534l0.277,0.472l0.14,0.374l-0.028,0.266l-0.174,0.189l-0.279,0.137l-0.346,0.101l-0.373,0.087l-0.36,0.094
		l-0.306,0.121l-0.009,2.335h8.92l0.014-2.353l-0.242-0.067l-0.235-0.042l-0.234-0.032l-0.237-0.047l-0.244-0.083l-0.255-0.144
		l-0.266-0.219l-0.274-0.313l-0.283-0.386l-0.288-0.443l-0.302-0.482l-0.312-0.503l-0.331-0.506l-0.35-0.492l-0.36-0.494
		l-0.361-0.517l-0.371-0.532l-0.398-0.531l-0.429-0.523l-0.478-0.5L57.732,8.94l-0.589-0.45L56.51,8.039l-0.68-0.437l-0.718-0.41
		l-0.753-0.371l-0.785-0.317l-0.811-0.252l-0.85-0.193L51.017,5.91l-0.935-0.102l-0.957-0.051l-0.977,0.004l-0.98,0.062
		l-0.975,0.125L45.188,6.152z M52.342,49.581l0.419-0.029l0.422-0.019l0.418-0.024l0.416-0.043v-2.739l0.296,0.109l0.293,0.104
		l0.289,0.104l0.293,0.106l0.302,0.115l0.311,0.126l0.325,0.136l0.345,0.153l0.363,0.156L57.205,48l0.378,0.177l0.379,0.192
		l0.372,0.208l0.36,0.23l0.35,0.248l0.344,0.26l0.338,0.276l0.336,0.295l0.33,0.315l0.332,0.342l0.33,0.373l0.338,0.399l0.349,0.429
		l0.347,0.456l0.341,0.473l0.328,0.498l0.301,0.516l0.271,0.527l0.243,0.539l0.227,0.551L64,55.871l0.184,0.588l0.159,0.613
		l0.135,0.65l0.111,0.688l0.085,0.759l0.059,0.841l0.034,0.884l0.013,0.891l-0.011,0.862l-0.024,0.794l-0.049,0.696l-0.071,0.587
		l-0.097,0.513l-0.123,0.454l-0.138,0.41l-0.147,0.388l-0.15,0.382l-0.148,0.393l-0.146,0.39l-0.15,0.372l-0.152,0.354l-0.159,0.35
		l-0.173,0.345l-0.186,0.354L62.65,69.79l-0.219,0.38l-0.233,0.388l-0.244,0.396l-0.259,0.393l-0.271,0.392l-0.279,0.383
		l-0.291,0.37l-0.296,0.355l-0.297,0.344l-0.308,0.337l-0.32,0.331l-0.347,0.332l-0.371,0.338l-0.403,0.348l-0.447,0.364
		l-0.483,0.39l-0.513,0.394l-0.531,0.389l-0.543,0.374l-0.543,0.338l-0.533,0.292l-0.523,0.245l-0.519,0.208l-0.521,0.181
		l-0.528,0.151l-0.543,0.137l-0.563,0.126l-0.589,0.116l-0.624,0.111l-0.652,0.104l-0.676,0.09l-0.688,0.073l-0.689,0.053
		l-0.683,0.022l-0.667-0.002l-0.67-0.042l-0.683-0.075l-0.687-0.104l-0.671-0.122l-0.645-0.133l-0.602-0.137l-0.545-0.132
		l-0.477-0.127l-0.42-0.129l-0.377-0.134l-0.349-0.143l-0.337-0.151l-0.338-0.164l-0.357-0.185l-0.367-0.2l-0.364-0.223l-0.36-0.234
		l-0.358-0.243l-0.357-0.246l-0.358-0.245l-0.36-0.234l0.468-0.552l0.46-0.504l0.458-0.494l0.461-0.514l0.472-0.573l0.489-0.664
		l0.513-0.79l0.549-0.938l0.585-1.064l0.604-1.153l0.609-1.217l0.596-1.235l0.569-1.228l0.526-1.186l2.933-8.095l0.308-0.778
		l0.262-0.657l0.232-0.56l0.219-0.486l0.221-0.433l0.236-0.404l0.271-0.395l0.298-0.375l0.313-0.334l0.323-0.298l0.335-0.259
		l0.347-0.228l0.358-0.199l0.365-0.171l0.382-0.133l0.397-0.082L52.342,49.581z"/>
</g>
</svg>
