<?xml version="1.0" encoding="utf-8"?>
<!-- Generator: Adobe Illustrator 15.0.2, SVG Export Plug-In . SVG Version: 6.00 Build 0)  -->
<!DOCTYPE svg PUBLIC "-//W3C//DTD SVG 1.1//EN" "http://www.w3.org/Graphics/SVG/1.1/DTD/svg11.dtd">
<svg version="1.1" id="Layer_1" xmlns="http://www.w3.org/2000/svg" xmlns:xlink="http://www.w3.org/1999/xlink" x="0px" y="0px"
	 width="100px" height="100px" viewBox="0 0 100 100" enable-background="new 0 0 100 100" xml:space="preserve">
<g>
	<path fill="#2A1442" d="M49.813,10.454l-1.072,0.292l-1.092,0.358l-1.081,0.399l-1.038,0.428l-0.965,0.435l-0.86,0.418
		l-0.754,0.416l-0.672,0.431l-0.607,0.444l-0.551,0.455l-0.512,0.463l-0.484,0.467l-0.469,0.47l-0.448,0.474l-0.41,0.479
		l-0.375,0.486l-0.348,0.492l-0.323,0.498l-0.304,0.503l-0.291,0.506l-0.263,0.522l-0.227,0.542l-0.203,0.55l-0.189,0.547
		l-0.186,0.536l-0.194,0.516l-0.214,0.482l-0.248,0.457l-0.276,0.439l-0.287,0.422l-0.28,0.401l-0.254,0.38l-0.21,0.359
		l-0.149,0.332l-0.087,0.292l-0.043,0.247l-0.003,0.219l0.03,0.208l0.061,0.212l0.083,0.233l0.101,0.272l0.136,0.293l0.179,0.295
		l0.21,0.305l0.227,0.33l0.227,0.365l0.215,0.409l0.189,0.469l0.153,0.546l0.127,0.623l0.114,0.672l0.116,0.699l0.131,0.698
		l0.159,0.673l0.202,0.625l0.244,0.583l0.272,0.566l0.298,0.55l0.319,0.533l0.337,0.516l0.35,0.5l0.357,0.48l0.363,0.45l0.371,0.417
		l0.384,0.394l0.402,0.386l0.423,0.391l0.451,0.407l0.482,0.435l0.525,0.476l0.567,0.506l0.598,0.524l0.615,0.528l0.618,0.514
		l0.61,0.492l0.589,0.452l0.574,0.414l0.574,0.388l0.57,0.367l0.565,0.35l0.556,0.333l0.547,0.324l0.535,0.317l3.465,1.919
		l2.081,1.159l1.642,0.807H45.201v3.472l0.438,0.083l0.467,0.066L46.58,54.7l0.461,0.07l0.423,0.09l0.365,0.119l0.283,0.161
		l0.211,0.164l0.162,0.14l0.11,0.159l0.057,0.207l0.003,0.294l-0.051,0.409l-0.109,0.57l-0.184,0.767l-0.265,0.956l-0.325,1.083
		l-0.367,1.152l-0.391,1.163l-0.394,1.117l-0.379,1.009l-0.359,0.902l-0.357,0.847l-0.363,0.812l-0.381,0.797l-0.407,0.805
		l-0.444,0.83l-0.491,0.879l-0.57,0.977l-0.653,1.078l-0.698,1.117l-0.708,1.097l-0.679,1.018l-0.617,0.878l-0.516,0.681
		l-0.39,0.493l-0.287,0.372l-0.223,0.249l-0.197,0.132l-0.209,0.02l-0.261-0.086l-0.349-0.191l-0.447-0.322l-0.513-0.467
		l-0.559-0.586l-0.582-0.677l-0.584-0.742l-0.564-0.781l-0.523-0.793l-0.5-0.847l-0.498-0.937l-0.488-0.996l-0.47-1.024
		l-0.444-1.017l-0.408-0.979l-0.365-0.912l-0.317-0.853l-0.278-0.827l-0.243-0.8l-0.214-0.772l-0.192-0.748l-0.173-0.721
		l-0.163-0.695l-0.155-0.673l-0.141-0.653l-0.125-0.628l-0.102-0.598l-0.074-0.565l-0.042-0.525l-0.006-0.479l0.033-0.436
		l0.068-0.392l0.098-0.356l0.128-0.317l0.15-0.285l0.173-0.253l0.192-0.225l0.219-0.179l0.254-0.126l0.28-0.092l0.298-0.067
		l0.302-0.058l0.299-0.063l0.287-0.081l0.001-3.472H17.057v3.472l0.423,0.06l0.433,0.021l0.435,0.013l0.431,0.031l0.419,0.075
		l0.398,0.147l0.373,0.246l0.346,0.349l0.326,0.43l0.307,0.498l0.293,0.551l0.28,0.592l0.268,0.614l0.261,0.629l0.238,0.651
		l0.212,0.685l0.195,0.718l0.191,0.745l0.2,0.771l0.221,0.789l0.254,0.813l0.285,0.848l0.307,0.895l0.324,0.924l0.34,0.935
		l0.351,0.926l0.361,0.903l0.367,0.857l0.376,0.816l0.388,0.792l0.397,0.771l0.407,0.754l0.417,0.74l0.425,0.728l0.432,0.718
		l0.441,0.714l0.45,0.708l0.459,0.697l0.467,0.681l0.474,0.66l0.478,0.629l0.482,0.596l0.482,0.56l0.48,0.521l0.484,0.494
		l0.493,0.472l0.507,0.459l0.527,0.45l0.552,0.449l0.593,0.458l0.636,0.46l0.659,0.454l0.665,0.438l0.651,0.412l0.622,0.378
		l0.571,0.334l0.493,0.281l0.427,0.235l0.39,0.197l0.387,0.175l0.416,0.163l0.477,0.168l0.57,0.178l0.667,0.196l0.735,0.209
		l0.789,0.208l0.831,0.199l0.86,0.182l0.875,0.149l0.876,0.114l0.911,0.074l0.968,0.051l0.996,0.024h0.999l0.972-0.028l0.915-0.05
		l0.833-0.071l0.736-0.1l0.661-0.126l0.609-0.152l0.577-0.175l0.569-0.194l0.585-0.214l0.623-0.229l0.659-0.248l0.675-0.266
		l0.685-0.286l0.688-0.306l0.686-0.327l0.675-0.349l0.657-0.372l0.645-0.392l0.64-0.414l0.632-0.435l0.623-0.455l0.61-0.483
		l0.599-0.509l0.582-0.539l0.571-0.576l0.566-0.605l0.556-0.635l0.54-0.66l0.518-0.676l0.491-0.691l0.462-0.7l0.432-0.724
		l0.409-0.755l0.385-0.776l0.358-0.783l0.333-0.773l0.307-0.754l0.276-0.721l1.179-4.485l0.202-0.437l0.229-0.367l0.237-0.314
		l0.231-0.277l0.211-0.256l0.176-0.248l0.123-0.26l0.076-0.26l0.042-0.238l0.01-0.229l-0.02-0.222l-0.048-0.215l-0.071-0.219
		l-0.094-0.223l-0.131-0.216L77.1,64.134l-0.201-0.198l-0.219-0.204l-0.226-0.226l-0.223-0.257l-0.206-0.299l-0.191-0.331
		l-0.182-0.354l-0.184-0.378l-0.186-0.411l-0.191-0.445l-0.203-0.491l-0.219-0.536l-0.221-0.605l-0.215-0.675l-0.22-0.725
		l-0.239-0.749l-0.27-0.756l-0.311-0.74l-0.367-0.702l-0.423-0.675l-0.464-0.671l-0.508-0.66l-0.542-0.65l-0.575-0.64l-0.605-0.625
		l-0.631-0.61l-0.666-0.593l-0.708-0.577l-0.743-0.562l-0.767-0.553l-0.783-0.542l-0.792-0.538l-0.794-0.534l-5.803-3.575l3.044-1.9
		l0.424-0.299l0.428-0.306l0.424-0.313l0.42-0.319l0.411-0.326l0.396-0.333l0.381-0.341l0.371-0.346l0.367-0.353l0.356-0.359
		l0.341-0.366l0.321-0.375l0.299-0.383l0.27-0.391l0.239-0.403l0.212-0.411l0.188-0.42l0.168-0.429l0.149-0.435l0.138-0.442
		l0.125-0.448l0.1-0.479l0.066-0.517l0.046-0.533l0.041-0.522l0.051-0.488l0.075-0.428l0.114-0.342l0.16-0.243l0.19-0.162
		l0.213-0.103l0.226-0.065l0.232-0.051l0.232-0.059l0.218-0.088v-2.365h-8.621l0.008,2.467l0.319,0.054l0.338,0.037l0.343,0.034
		l0.334,0.041l0.311,0.061l0.275,0.095l0.228,0.138l0.181,0.191l0.145,0.232l0.113,0.264l0.082,0.286l0.058,0.297l0.033,0.293
		l0.014,0.285l-0.012,0.275l-0.038,0.279l-0.063,0.281l-0.087,0.286l-0.109,0.288l-0.129,0.292l-0.145,0.294l-0.161,0.298
		l-0.179,0.299l-0.196,0.303l-0.218,0.304l-0.243,0.312l-0.271,0.316l-0.302,0.321l-0.343,0.335l-0.384,0.354l-0.414,0.362
		l-0.435,0.359l-0.439,0.349l-0.438,0.328l-0.422,0.297l-0.403,0.271L57.8,38.747l-0.39,0.244l-0.396,0.221l-0.406,0.198
		l-0.43,0.169l-0.456,0.134l-0.503,0.099l-0.545,0.064l-0.569,0.035l-0.576,0.011l-0.563-0.011l-0.526-0.029l-0.476-0.042
		l-0.414-0.061l-0.367-0.086l-0.335-0.105l-0.319-0.121l-0.316-0.132l-0.328-0.14l-0.356-0.143l-0.385-0.146l-0.399-0.151
		l-0.411-0.16l-0.413-0.17l-0.411-0.18l-0.401-0.195l-0.387-0.21l-0.374-0.228l-0.366-0.242l-0.36-0.258l-0.353-0.267l-0.346-0.278
		l-0.34-0.286l-0.333-0.292l-0.324-0.282l-0.314-0.274l-0.307-0.275l-0.302-0.294l-0.298-0.325l-0.297-0.369l-0.299-0.426
		l-0.313-0.5l-0.333-0.566l-0.333-0.615l-0.324-0.639l-0.298-0.645l-0.258-0.631l-0.203-0.594l-0.149-0.568l-0.107-0.565
		l-0.07-0.556l-0.039-0.548l-0.012-0.534l0.012-0.519l0.027-0.5l0.045-0.475l0.067-0.45l0.091-0.434l0.115-0.423l0.141-0.422
		l0.168-0.426l0.197-0.438l0.233-0.459l0.272-0.476l0.302-0.479l0.323-0.478l0.333-0.462l0.334-0.44l0.326-0.409l0.314-0.372
		l0.31-0.345l0.312-0.324l0.321-0.308l0.336-0.296l0.357-0.294l0.386-0.296l0.415-0.304l0.437-0.311l0.457-0.307l0.476-0.296
		l0.492-0.275l0.504-0.249l0.516-0.213l0.536-0.179l0.559-0.153l0.577-0.127l0.585-0.102l0.588-0.083l0.584-0.059l0.572-0.039
		l0.565-0.02l0.567,0.002l0.564,0.025l0.562,0.046l0.556,0.068l0.54,0.09l0.529,0.115l0.516,0.128l0.507,0.141l0.498,0.162
		l0.485,0.189l0.476,0.225l0.459,0.267l0.445,0.318l0.464,0.407l0.498,0.496l0.493,0.55l0.461,0.564l0.386,0.542l0.282,0.479
		l0.142,0.38l-0.028,0.27l-0.178,0.192l-0.284,0.14l-0.352,0.102l-0.379,0.088l-0.366,0.095l-0.311,0.124l-0.01,2.374h9.068
		l0.015-2.392l-0.246-0.069l-0.238-0.042l-0.239-0.033l-0.242-0.048l-0.247-0.085l-0.259-0.146L67.72,20.09l-0.28-0.318
		l-0.286-0.393l-0.294-0.451l-0.306-0.49l-0.317-0.511L65.9,17.412l-0.356-0.5l-0.366-0.501l-0.367-0.526l-0.378-0.54l-0.403-0.541
		l-0.438-0.532l-0.485-0.508l-0.54-0.475l-0.599-0.458l-0.646-0.458l-0.689-0.444l-0.731-0.417l-0.765-0.377l-0.797-0.323
		l-0.824-0.256L56.65,10.36l-0.912-0.152l-0.949-0.104l-0.974-0.052l-0.992,0.004l-0.997,0.062l-0.991,0.127L49.813,10.454z
		 M57.086,54.604l0.426-0.028l0.429-0.021l0.426-0.024l0.422-0.043v-2.786l0.302,0.112l0.298,0.105l0.294,0.104l0.298,0.108
		l0.306,0.117l0.316,0.127l0.33,0.14l0.351,0.155l0.369,0.159l0.379,0.167l0.385,0.18l0.385,0.195l0.378,0.211l0.366,0.234
		l0.354,0.252l0.351,0.265l0.343,0.281l0.341,0.299l0.337,0.321l0.338,0.349l0.335,0.378l0.344,0.406l0.354,0.436l0.354,0.464
		l0.347,0.481l0.332,0.506l0.307,0.524l0.275,0.535l0.247,0.548l0.229,0.561L68.938,61l0.187,0.598l0.162,0.624l0.137,0.66
		l0.113,0.699l0.086,0.771l0.061,0.854l0.034,0.898l0.013,0.906l-0.01,0.876l-0.026,0.808l-0.05,0.707L69.572,70l-0.1,0.521
		l-0.123,0.461l-0.14,0.417l-0.15,0.394l-0.152,0.389l-0.152,0.399l-0.147,0.396l-0.152,0.377l-0.156,0.361l-0.162,0.354
		l-0.176,0.352l-0.188,0.358l-0.207,0.37l-0.223,0.386l-0.236,0.396l-0.249,0.401l-0.263,0.4l-0.274,0.397l-0.285,0.389
		l-0.295,0.377l-0.301,0.361l-0.302,0.35l-0.313,0.342l-0.326,0.336l-0.351,0.339l-0.378,0.343l-0.411,0.353l-0.454,0.371
		l-0.492,0.396l-0.521,0.401l-0.54,0.396l-0.552,0.38l-0.552,0.343l-0.543,0.298l-0.531,0.248l-0.527,0.212l-0.529,0.184
		l-0.537,0.155l-0.552,0.139l-0.571,0.128l-0.6,0.118L55.224,84.2l-0.664,0.106l-0.687,0.091l-0.699,0.074l-0.7,0.053l-0.694,0.023
		l-0.679-0.003l-0.681-0.041l-0.695-0.078l-0.698-0.104l-0.683-0.124l-0.656-0.135l-0.611-0.139l-0.554-0.134l-0.485-0.13
		l-0.427-0.131l-0.383-0.137l-0.354-0.145l-0.343-0.154l-0.344-0.167l-0.362-0.187l-0.374-0.204l-0.369-0.226l-0.367-0.238
		l-0.364-0.247l-0.363-0.251l-0.364-0.249l-0.366-0.239l0.476-0.561l0.468-0.512l0.466-0.502l0.469-0.522l0.48-0.582l0.497-0.675
		l0.521-0.805l0.558-0.954l0.594-1.081l0.615-1.174l0.619-1.236l0.606-1.257l0.578-1.247l0.535-1.205l2.982-8.229l0.312-0.791
		l0.267-0.669l0.236-0.568l0.222-0.494l0.225-0.439l0.24-0.411l0.275-0.401l0.303-0.382l0.317-0.34l0.33-0.302l0.34-0.263
		l0.352-0.231l0.364-0.203l0.372-0.174l0.388-0.136l0.404-0.083L57.086,54.604z"/>
	<path fill="#2A1442" d="M94.591,30.874C92.155,25.002,88.67,19.729,84.229,15.2c-4.44-4.53-9.613-8.087-15.373-10.572
		C63.372,2.262,57.574,0.972,51.6,0.778c-0.474-0.016-0.947-0.028-1.422-0.028c-0.025,0-0.048,0.001-0.072,0.001
		c-0.028,0-0.054-0.001-0.081-0.001c-6.531,0-12.867,1.305-18.832,3.878C25.432,7.113,20.26,10.67,15.818,15.2
		c-4.439,4.528-7.925,9.802-10.36,15.674c-2.521,6.079-3.799,12.534-3.799,19.188c0,6.655,1.278,13.112,3.799,19.189
		c2.435,5.872,5.92,11.146,10.36,15.674c4.442,4.53,9.614,8.088,15.374,10.572c5.965,2.574,12.301,3.879,18.832,3.879
		c0.027,0,0.053-0.002,0.081-0.002c0.024,0,0.047,0.002,0.072,0.002c0.476,0,0.95-0.013,1.424-0.029
		c5.973-0.193,11.771-1.484,17.254-3.85c5.76-2.484,10.933-6.042,15.373-10.572c4.441-4.528,7.927-9.802,10.362-15.674
		c2.52-6.077,3.798-12.534,3.798-19.189C98.389,43.408,97.11,36.953,94.591,30.874z M91.938,50.063
		c0,25.641-18.003,46.595-40.405,47.411c-0.475,0.016-0.95,0.026-1.428,0.026C27.111,97.455,8.416,76.193,8.416,50.063
		c0-26.129,18.695-47.392,41.689-47.436c0.478,0,0.954,0.011,1.428,0.026C73.936,3.469,91.938,24.421,91.938,50.063z M3.534,50.063
		c0-15.857,7.666-29.921,19.414-38.538c-1.275,1.153-2.5,2.39-3.666,3.712c-3.998,4.529-7.136,9.801-9.327,15.669
		C7.689,36.975,6.541,43.42,6.541,50.063c0,6.643,1.149,13.089,3.415,19.159c2.191,5.867,5.329,11.139,9.327,15.67
		c1.166,1.319,2.39,2.556,3.665,3.711C11.2,79.982,3.534,65.92,3.534,50.063z M78.774,87.316c0.788-0.774,1.555-1.583,2.298-2.425
		c3.997-4.531,7.137-9.803,9.327-15.67c2.266-6.07,3.414-12.517,3.414-19.159c0-6.642-1.148-13.088-3.414-19.157
		c-2.19-5.868-5.33-11.14-9.327-15.669c-0.743-0.843-1.51-1.652-2.299-2.427c10.796,8.694,17.74,22.162,17.74,37.253
		C96.514,65.154,89.571,78.622,78.774,87.316z"/>
</g>
</svg>
