<?xml version="1.0" encoding="utf-8"?>
<!-- Generator: Adobe Illustrator 15.0.2, SVG Export Plug-In . SVG Version: 6.00 Build 0)  -->
<!DOCTYPE svg PUBLIC "-//W3C//DTD SVG 1.1//EN" "http://www.w3.org/Graphics/SVG/1.1/DTD/svg11.dtd">
<svg version="1.1" id="Layer_1" xmlns="http://www.w3.org/2000/svg" xmlns:xlink="http://www.w3.org/1999/xlink" x="0px" y="0px"
	 width="120.51px" height="72px" viewBox="0 0 120.51 72" enable-background="new 0 0 120.51 72" xml:space="preserve">
<path fill="#EC008C" d="M29.344,0c0,0-48.583,33.295-20.725,55.719c27.859,22.423,29.898,21.743,33.975-3.397
	c4.077-25.142-13.59-21.744-13.59-21.744l-1.359,5.368c0,0,6.116,3.465,6.116,6.863s-8.689,13.59-12.159,5.437
	c-3.47-8.154-19.633-12.231,0-21.744c19.633-9.513,18.274-16.308,18.274-16.308L29.344,0z"/>
<path fill="#00A14B" d="M74.531,2.492c0,0-36.151,7.701-31.326,21.744c4.825,14.043,15.018,13.137,21.587,13.137
	c6.568,0,21.743,13.364,9.739,15.855s-22.65,0.68-23.329,0c-0.68-0.68-4.077,9.965-4.077,9.965s30.351,4.077,35.107-2.038
	s11.099-29.897-6.795-30.577s-27.632-7.475-14.27-11.551c13.363-4.077,17.214-5.436,17.214-5.436L74.531,2.492z"/>
<path fill="#7F3F98" d="M101.485,68.178l-7.249-0.002c0,0-4.077,0.453-1.584-13.59c2.491-14.042-6.342-52.094-6.342-52.094h9.965
	c0,0,3.625,42.809,3.625,41.675s11.324-41.675,11.324-41.675l9.287,1.585L101.485,68.178z"/>
</svg>
